<svg id="Layer_1" data-name="Layer 1" xmlns="http://www.w3.org/2000/svg" viewBox="0 0 282.4 229.99"><defs><style>.cls-1,.cls-2{fill:#ed1c24;}.cls-2{font-size:30.51px;font-family:HeadingNow-96Bold;font-weight:700;}.cls-3{letter-spacing:-0.02em;}.cls-4{letter-spacing:-0.04em;}</style></defs><path class="cls-1" d="M270.45,220a62.27,62.27,0,0,1-7.36-.16c-.55,0-1.09-.1-1.63-.16l-.73-.08-.22,0c-1.28-.18-2.56-.4-3.82-.66a71.53,71.53,0,0,1-6.95-1.79c-1.11-.35-2.21-.72-3.31-1.11-.58-.21-1.16-.43-1.73-.66l-.33-.12-.77-.33a87.38,87.38,0,0,1-13-6.93c-1-.68-2.08-1.37-3.1-2.09-.54-.37-1.08-.76-1.61-1.14l-.45-.34-.64-.48c-2-1.55-4-3.18-6-4.87a149.89,149.89,0,0,1-11.2-10.92c-1.8-1.94-3.55-3.92-5.28-5.92q-1.28-1.5-2.52-3l-1.32-1.61-.58-.71c-.06-.08-.3-.39-.45-.57a231.54,231.54,0,0,1-18.34-26.87q-2.82-4.83-5.39-9.78c1.52.64,3.07,1.22,4.63,1.71a5,5,0,0,0,6.1-3.58,5.12,5.12,0,0,0-3.58-6.1c-.54-.17-1.08-.34-1.61-.53l-.8-.29-.1,0,.17.08c-1-.47-2-.86-3-1.35s-1.92-1-2.84-1.6c-.48-.3-.95-.62-1.42-.94l-.31-.22c.66.46-.23-.19-.28-.24a25.07,25.07,0,0,1-2.36-2.13c-.38-.38-.74-.78-1.08-1.18a.59.59,0,0,0,0,.08.91.91,0,0,0-.11-.16,1.13,1.13,0,0,1-.1-.13l-.19-.24a20.48,20.48,0,0,1-1.7-2.8,1.42,1.42,0,0,1-.08-.18,1.46,1.46,0,0,1-.13-.25s0,0,0,0a.83.83,0,0,0-.07-.13l.05.08c-.21-.55-.39-1.09-.55-1.65a5.15,5.15,0,0,0-2.28-2.92,4.59,4.59,0,0,0-4.81-1.34c-2.38.78-4.46,3.55-3.46,6.16.09.25.19.49.29.73a5.27,5.27,0,0,0,.14,1.11c.1.46.19.93.28,1.39,0,.12,0,.23,0,.35a23.92,23.92,0,0,1,.1,2.81c0,.49,0,1-.08,1.48,0,.1,0,.39,0,.52a27.63,27.63,0,0,1-.59,2.7c-.12.43-.25.86-.39,1.28s-.81,1.83-.15.48c-.41.84-.76,1.7-1.22,2.53s-1.06,1.45-1.43,2.21c.18-.31.47-.58,0-.05l-.07.09a.6.6,0,0,1-.06.11l.06-.11-.4.48c-.32.38-.65.74-1,1.1a5,5,0,1,0,7.2,6.94,28.51,28.51,0,0,0,5.27-7.69,231.68,231.68,0,0,0,25.29,41.07c13.27,17.19,28.93,33.84,48.9,43.18,10.75,5,22.51,8,34.43,7.56,2.6-.1,5.11-2.27,5-5A5.08,5.08,0,0,0,270.45,220Zm-115.87-97.3c0-.05,0-.1,0-.13S154.57,122.61,154.58,122.65Z"/><path class="cls-1" d="M167.26,123.16l0,0c-.39-.71-.34-.48-.17-.21a.64.64,0,0,1,.1.13Z"/><path class="cls-1" d="M178.38,130.78c-.71-.35-.29-.13,0,0Z"/><path class="cls-1" d="M165.16,119.77c.15.25.27.29-.16-.34,0,0,0,0,0,0S165.12,119.67,165.16,119.77Z"/><path class="cls-1" d="M150.84,137.27l0,0h0Z"/><text class="cls-2" transform="translate(0 30.21)">DÉCOUVRIR<tspan x="51.9" y="36.61">LE </tspan><tspan class="cls-3" x="121.37" y="36.61">S</tspan><tspan x="150.6" y="36.61">A</tspan><tspan class="cls-4" x="185.99" y="36.61">L</tspan><tspan x="211.1" y="36.61">ON</tspan></text></svg>